<?xml version="1.0" encoding="UTF-8" standalone="no"?>
<!-- Created with Inkscape (http://www.inkscape.org/) -->
<svg
   xmlns:svg="http://www.w3.org/2000/svg"
   xmlns="http://www.w3.org/2000/svg"
   version="1.0"
   width="180"
   height="140"
   id="svg2">
  <defs
     id="defs4" />
  <g
     transform="translate(-206.2335,-153.019)"
     id="layer1">
    <g
       transform="translate(63.00862,53.08626)"
       id="g4550">
      <rect
         width="29.850746"
         height="29.850746"
         x="214.91687"
         y="110.63504"
         style="opacity:1;fill:#f9f9f9;fill-opacity:1;fill-rule:evenodd;stroke:#aaa;stroke-width:1;stroke-linecap:butt;stroke-linejoin:miter;stroke-miterlimit:4;stroke-dasharray:none;stroke-opacity:1"
         id="rect1876" />
      <rect
         width="29.850746"
         height="29.850746"
         x="185.06613"
         y="110.63504"
         style="opacity:1;fill:#f9f9f9;fill-opacity:1;fill-rule:evenodd;stroke:#aaa;stroke-width:1;stroke-linecap:butt;stroke-linejoin:miter;stroke-miterlimit:4;stroke-dasharray:none;stroke-opacity:1"
         id="rect3649" />
      <rect
         width="29.850746"
         height="29.850746"
         x="214.91687"
         y="170.33653"
         style="opacity:1;fill:#f9f9f9;fill-opacity:1;fill-rule:evenodd;stroke:#aaa;stroke-width:1;stroke-linecap:butt;stroke-linejoin:miter;stroke-miterlimit:4;stroke-dasharray:none;stroke-opacity:1"
         id="rect3651" />
      <rect
         width="29.850746"
         height="29.850746"
         x="244.76762"
         y="140.48578"
         style="opacity:1;fill:#f9f9f9;fill-opacity:1;fill-rule:evenodd;stroke:#aaa;stroke-width:1;stroke-linecap:butt;stroke-linejoin:miter;stroke-miterlimit:4;stroke-dasharray:none;stroke-opacity:1"
         id="rect3653" />
      <rect
         width="29.850746"
         height="29.850746"
         x="244.76762"
         y="110.63504"
         style="opacity:1;fill:#f9f9f9;fill-opacity:1;fill-rule:evenodd;stroke:#aaa;stroke-width:1;stroke-linecap:butt;stroke-linejoin:miter;stroke-miterlimit:4;stroke-dasharray:none;stroke-opacity:1"
         id="rect3655" />
      <rect
         width="29.850746"
         height="29.850746"
         x="185.06613"
         y="170.33653"
         style="opacity:1;fill:#f9f9f9;fill-opacity:1;fill-rule:evenodd;stroke:#aaa;stroke-width:1;stroke-linecap:butt;stroke-linejoin:miter;stroke-miterlimit:4;stroke-dasharray:none;stroke-opacity:1"
         id="rect3657" />
      <rect
         width="29.850746"
         height="29.850746"
         x="214.91687"
         y="140.48578"
         style="opacity:1;fill:#f9f9f9;fill-opacity:1;fill-rule:evenodd;stroke:#aaa;stroke-width:1;stroke-linecap:butt;stroke-linejoin:miter;stroke-miterlimit:4;stroke-dasharray:none;stroke-opacity:1"
         id="rect3659" />
      <rect
         width="29.850746"
         height="29.850746"
         x="185.06613"
         y="140.48578"
         style="opacity:1;fill:#f9f9f9;fill-opacity:1;fill-rule:evenodd;stroke:#aaa;stroke-width:1;stroke-linecap:butt;stroke-linejoin:miter;stroke-miterlimit:4;stroke-dasharray:none;stroke-opacity:1"
         id="rect3661" />
      <rect
         width="29.850746"
         height="29.850746"
         x="244.76762"
         y="170.33653"
         style="opacity:1;fill:#f9f9f9;fill-opacity:1;fill-rule:evenodd;stroke:#aaa;stroke-width:1;stroke-linecap:butt;stroke-linejoin:miter;stroke-miterlimit:4;stroke-dasharray:none;stroke-opacity:1"
         id="rect3663" />
    </g>
  </g>
  <g
     transform="translate(-206.2335,-153.019)"
     style="display:inline"
     id="layer2">
    <path
       d="M 195.71484,125.49368 C 195.27734,125.33353 194.95312,125.10501 194.74219,124.80813 C 194.53125,124.51126 194.42578,124.15579 194.42578,123.74173 C 194.42578,123.11673 194.65039,122.59134 195.09961,122.16555 C 195.54883,121.73978 196.14648,121.52689 196.89258,121.52688 C 197.64257,121.52689 198.24609,121.74466 198.70313,122.1802 C 199.16015,122.61576 199.38867,123.14603 199.38867,123.77102 C 199.38867,124.16947 199.28417,124.51615 199.0752,124.81106 C 198.86621,125.10599 198.54882,125.33353 198.12305,125.49368 C 198.65039,125.66556 199.05175,125.9429 199.32715,126.32571 C 199.60253,126.70853 199.74023,127.16556 199.74023,127.6968 C 199.74023,128.43118 199.48046,129.04837 198.96094,129.54837 C 198.4414,130.04837 197.75781,130.29837 196.91016,130.29837 C 196.0625,130.29837 195.3789,130.04739 194.85938,129.54544 C 194.33984,129.04348 194.08008,128.41751 194.08008,127.66751 C 194.08008,127.10892 194.22168,126.64114 194.50488,126.26419 C 194.78808,125.88724 195.1914,125.6304 195.71484,125.49368 L 195.71484,125.49368 z M 195.50391,123.70657 C 195.5039,124.11283 195.63476,124.44486 195.89648,124.70266 C 196.1582,124.96048 196.49804,125.08939 196.91602,125.08938 C 197.32226,125.08939 197.65527,124.96146 197.91504,124.70559 C 198.1748,124.44974 198.30468,124.13626 198.30469,123.76516 C 198.30468,123.37845 198.17089,123.05326 197.90332,122.78958 C 197.63574,122.52591 197.30273,122.39408 196.9043,122.39407 C 196.50195,122.39408 196.16797,122.52298 195.90234,122.78079 C 195.63672,123.03861 195.5039,123.3472 195.50391,123.70657 L 195.50391,123.70657 z M 195.16406,127.67337 C 195.16406,127.97415 195.23535,128.26516 195.37793,128.54641 C 195.52051,128.82766 195.73242,129.04544 196.01367,129.19973 C 196.29492,129.35403 196.59765,129.43118 196.92188,129.43118 C 197.42578,129.43118 197.84179,129.26907 198.16992,128.94485 C 198.49804,128.62063 198.6621,128.20852 198.66211,127.70852 C 198.6621,127.20071 198.49316,126.78079 198.15527,126.44876 C 197.81738,126.11673 197.39453,125.95071 196.88672,125.95071 C 196.39062,125.95071 195.97949,126.11478 195.65332,126.4429 C 195.32715,126.77103 195.16406,127.18118 195.16406,127.67337 L 195.16406,127.67337 z "
       transform="matrix(1.697017,0,0,1.697017,-10.84234,24.99743)"
       id="flowRoot4561" />
    <path
       d="M 199.63477,129.13821 L 199.63477,130.15188 L 193.95703,130.15188 C 193.94922,129.89798 193.99023,129.65384 194.08008,129.41946 C 194.22461,129.03274 194.45605,128.65188 194.77441,128.27688 C 195.09277,127.90188 195.55273,127.46829 196.1543,126.9761 C 197.08789,126.21048 197.71875,125.60403 198.04688,125.15676 C 198.375,124.7095 198.53906,124.28665 198.53906,123.88821 C 198.53906,123.47025 198.38964,123.11771 198.09082,122.83059 C 197.79199,122.54349 197.40234,122.39994 196.92188,122.39993 C 196.41406,122.39994 196.00781,122.55228 195.70313,122.85696 C 195.39844,123.16165 195.24414,123.58353 195.24023,124.12258 L 194.15625,124.01126 C 194.23047,123.20267 194.50976,122.58646 194.99414,122.16262 C 195.47851,121.7388 196.1289,121.52689 196.94531,121.52688 C 197.76953,121.52689 198.42187,121.75541 198.90234,122.21243 C 199.38281,122.66947 199.62304,123.23587 199.62305,123.91165 C 199.62304,124.2554 199.55273,124.59329 199.41211,124.92532 C 199.27148,125.25736 199.03808,125.60696 198.71191,125.97415 C 198.38574,126.34134 197.84375,126.84524 197.08594,127.48587 C 196.45312,128.01712 196.04687,128.37747 195.86719,128.56692 C 195.6875,128.75638 195.53906,128.9468 195.42188,129.13821 L 199.63477,129.13821 z "
       transform="matrix(1.697017,0,0,1.697017,-71.5297,-34.79318)"
       id="flowRoot4569" />
    <path
       d="M 194.0918,127.90188 L 195.19922,127.80813 C 195.28125,128.3472 195.47168,128.75247 195.77051,129.02395 C 196.06933,129.29544 196.42968,129.43118 196.85156,129.43118 C 197.35937,129.43118 197.78906,129.23977 198.14063,128.85696 C 198.49218,128.47415 198.66796,127.96634 198.66797,127.33352 C 198.66796,126.73196 198.49902,126.25735 198.16113,125.90969 C 197.82324,125.56204 197.38086,125.38821 196.83398,125.38821 C 196.49414,125.38821 196.1875,125.46536 195.91406,125.61966 C 195.64062,125.77396 195.42578,125.97415 195.26953,126.22024 L 194.2793,126.09133 L 195.11133,121.67923 L 199.38281,121.67923 L 199.38281,122.68704 L 195.95508,122.68704 L 195.49219,124.99563 C 196.00781,124.63626 196.54883,124.45657 197.11523,124.45657 C 197.86523,124.45657 198.49804,124.71634 199.01367,125.23587 C 199.52929,125.7554 199.7871,126.42337 199.78711,127.23977 C 199.7871,128.01712 199.56054,128.68899 199.10742,129.2554 C 198.55664,129.95071 197.80468,130.29837 196.85156,130.29837 C 196.07031,130.29837 195.43262,130.07962 194.93848,129.64212 C 194.44434,129.20462 194.16211,128.62454 194.0918,127.90188 L 194.0918,127.90188 z "
       transform="matrix(1.697017,0,0,1.697017,-41.70556,-5.02217)"
       id="flowRoot4577" />
    <path
       d="M 198.06445,130.15188 L 197.00977,130.15188 L 197.00977,123.43118 C 196.75586,123.67337 196.42285,123.91556 196.01074,124.15774 C 195.59863,124.39993 195.22851,124.58157 194.90039,124.70266 L 194.90039,123.68313 C 195.49023,123.40579 196.00586,123.06986 196.44727,122.67532 C 196.88867,122.2808 197.20117,121.89798 197.38477,121.52688 L 198.06445,121.52688 L 198.06445,130.15188 z "
       transform="matrix(1.697017,0,0,1.697017,-11.51849,-5.02217)"
       id="flowRoot4585" />
    <path
       d="M 194.25,128.16555 L 195.26367,128.0718 C 195.34961,128.54837 195.51367,128.89407 195.75586,129.10891 C 195.99804,129.32376 196.30859,129.43118 196.6875,129.43118 C 197.01172,129.43118 197.29589,129.35696 197.54004,129.20852 C 197.78418,129.06009 197.98437,128.86184 198.14063,128.6138 C 198.29687,128.36575 198.42773,128.03079 198.5332,127.60891 C 198.63867,127.18704 198.6914,126.75735 198.69141,126.31985 C 198.6914,126.27298 198.68945,126.20267 198.68555,126.10891 C 198.4746,126.44485 198.18652,126.71731 197.82129,126.9263 C 197.45605,127.13528 197.06054,127.23978 196.63477,127.23977 C 195.92383,127.23978 195.32226,126.98196 194.83008,126.46633 C 194.33789,125.95071 194.0918,125.27103 194.0918,124.42727 C 194.0918,123.55619 194.34863,122.85501 194.8623,122.32376 C 195.37597,121.79252 196.01953,121.52689 196.79297,121.52688 C 197.35156,121.52689 197.8623,121.67728 198.3252,121.97805 C 198.78808,122.27884 199.13964,122.70755 199.37988,123.26419 C 199.62011,123.82083 199.74023,124.6265 199.74023,125.68118 C 199.74023,126.77884 199.62109,127.65286 199.38281,128.30325 C 199.14453,128.95364 198.79003,129.44876 198.31934,129.7886 C 197.84863,130.12844 197.29687,130.29837 196.66406,130.29837 C 195.99219,130.29837 195.44336,130.11184 195.01758,129.7388 C 194.5918,129.36575 194.33594,128.84134 194.25,128.16555 L 194.25,128.16555 z M 198.56836,124.37454 C 198.56835,123.76908 198.40722,123.28861 198.08496,122.93313 C 197.76269,122.57767 197.375,122.39994 196.92188,122.39993 C 196.45312,122.39994 196.04492,122.59134 195.69727,122.97415 C 195.34961,123.35697 195.17578,123.85306 195.17578,124.46243 C 195.17578,125.00931 195.34082,125.45364 195.6709,125.79544 C 196.00097,126.13724 196.4082,126.30814 196.89258,126.30813 C 197.38086,126.30814 197.78222,126.13724 198.09668,125.79544 C 198.41113,125.45364 198.56835,124.98001 198.56836,124.37454 L 198.56836,124.37454 z "
       transform="matrix(1.697017,0,0,1.697017,-71.78326,-5.151434)"
       id="flowRoot4593" />
    <path
       d="M 199.56445,123.66555 L 198.51563,123.74758 C 198.42187,123.33353 198.28906,123.03275 198.11719,122.84524 C 197.83203,122.54447 197.48046,122.39408 197.0625,122.39407 C 196.72656,122.39408 196.43164,122.48783 196.17773,122.67532 C 195.8457,122.91751 195.58398,123.27103 195.39258,123.73587 C 195.20117,124.20072 195.10156,124.86282 195.09375,125.72219 C 195.34765,125.33548 195.6582,125.04837 196.02539,124.86087 C 196.39258,124.67337 196.77734,124.57962 197.17969,124.57962 C 197.88281,124.57962 198.48144,124.83841 198.97559,125.35598 C 199.46972,125.87357 199.71679,126.54251 199.7168,127.36282 C 199.71679,127.90188 199.60058,128.40286 199.36816,128.86575 C 199.13574,129.32864 198.8164,129.68313 198.41016,129.92923 C 198.0039,130.17532 197.54296,130.29837 197.02734,130.29837 C 196.14843,130.29837 195.43164,129.97512 194.87695,129.32864 C 194.32226,128.68216 194.04492,127.61673 194.04492,126.13235 C 194.04492,124.4722 194.35156,123.26517 194.96484,122.51126 C 195.5,121.85502 196.2207,121.52689 197.12695,121.52688 C 197.80273,121.52689 198.35644,121.71634 198.78809,122.09524 C 199.21972,122.47416 199.47851,122.99759 199.56445,123.66555 L 199.56445,123.66555 z M 195.25781,127.36868 C 195.25781,127.73196 195.33496,128.07962 195.48926,128.41165 C 195.64355,128.74368 195.85937,128.99661 196.13672,129.17044 C 196.41406,129.34427 196.70508,129.43118 197.00977,129.43118 C 197.45507,129.43118 197.83789,129.25149 198.1582,128.89212 C 198.47851,128.53274 198.63867,128.04446 198.63867,127.42727 C 198.63867,126.83353 198.48046,126.36575 198.16406,126.02395 C 197.84765,125.68216 197.44921,125.51126 196.96875,125.51126 C 196.49218,125.51126 196.08789,125.68216 195.75586,126.02395 C 195.42383,126.36575 195.25781,126.81399 195.25781,127.36868 L 195.25781,127.36868 z "
       transform="matrix(1.697017,0,0,1.697017,-11.57815,-34.91747)"
       id="flowRoot4601" />
    <path
       d="M 194.16211,122.68704 L 194.16211,121.67337 L 199.72266,121.67337 L 199.72266,122.49368 C 199.17578,123.07572 198.63378,123.84915 198.09668,124.81399 C 197.55957,125.77884 197.14453,126.77103 196.85156,127.79055 C 196.64062,128.50931 196.50586,129.29641 196.44727,130.15188 L 195.36328,130.15188 C 195.375,129.4761 195.50781,128.6597 195.76172,127.70266 C 196.01562,126.74564 196.37988,125.82278 196.85449,124.93411 C 197.3291,124.04544 197.83398,123.29642 198.36914,122.68704 L 194.16211,122.68704 z "
       transform="matrix(1.697017,0,0,1.697017,-41.32274,-34.82301)"
       id="flowRoot4609" />
    <path
       d="M 197.47266,130.15188 L 197.47266,128.09524 L 193.74609,128.09524 L 193.74609,127.12844 L 197.66602,121.56204 L 198.52734,121.56204 L 198.52734,127.12844 L 199.6875,127.12844 L 199.6875,128.09524 L 198.52734,128.09524 L 198.52734,130.15188 L 197.47266,130.15188 z M 197.47266,127.12844 L 197.47266,123.2554 L 194.7832,127.12844 L 197.47266,127.12844 z "
       transform="matrix(1.697017,0,0,1.697017,-71.73354,24.86816)"
       id="flowRoot4617" />
    <path
       d="M 194.09766,127.8843 L 195.15234,127.74368 C 195.27344,128.34134 195.47949,128.772 195.77051,129.03567 C 196.06152,129.29934 196.41601,129.43118 196.83398,129.43118 C 197.33007,129.43118 197.74902,129.2593 198.09082,128.91555 C 198.43261,128.57181 198.60351,128.14602 198.60352,127.63821 C 198.60351,127.15384 198.44531,126.75442 198.12891,126.43997 C 197.8125,126.12552 197.41015,125.96829 196.92188,125.96829 C 196.72265,125.96829 196.47461,126.00735 196.17773,126.08548 L 196.29492,125.15969 C 196.36523,125.16751 196.42187,125.17142 196.46484,125.17141 C 196.91406,125.17142 197.31836,125.05423 197.67773,124.81985 C 198.0371,124.58548 198.21679,124.22415 198.2168,123.73587 C 198.21679,123.34915 198.08593,123.02884 197.82422,122.77493 C 197.5625,122.52103 197.22461,122.39408 196.81055,122.39407 C 196.40039,122.39408 196.05859,122.52298 195.78516,122.78079 C 195.51172,123.03861 195.33594,123.42533 195.25781,123.94094 L 194.20313,123.75344 C 194.33203,123.04642 194.625,122.49857 195.08203,122.10989 C 195.53906,121.72123 196.10742,121.52689 196.78711,121.52688 C 197.25586,121.52689 197.6875,121.62748 198.08203,121.82864 C 198.47656,122.02982 198.77832,122.30423 198.9873,122.65188 C 199.19628,122.99955 199.30078,123.36869 199.30078,123.7593 C 199.30078,124.1304 199.20117,124.46829 199.00195,124.77298 C 198.80273,125.07767 198.50781,125.31986 198.11719,125.49954 C 198.62499,125.61673 199.01953,125.85989 199.30078,126.22903 C 199.58203,126.59817 199.72265,127.06009 199.72266,127.61477 C 199.72265,128.36477 199.44921,129.00052 198.90234,129.522 C 198.35546,130.04348 197.66406,130.30423 196.82813,130.30423 C 196.07422,130.30423 195.44824,130.07962 194.9502,129.6304 C 194.45215,129.18118 194.16797,128.59915 194.09766,127.8843 L 194.09766,127.8843 z "
       transform="matrix(1.697017,0,0,1.697017,-41.65088,24.87313)"
       id="flowRoot4625" />
  </g>
  <g
     transform="translate(-206.2335,-153.019)"
     id="layer3">
    <path
       d="M 174.00195,278.46438 L 172.94727,278.46438 L 172.94727,271.74368 C 172.69336,271.98587 172.36035,272.22806 171.94824,272.47024 C 171.53613,272.71243 171.16601,272.89407 170.83789,273.01516 L 170.83789,271.99563 C 171.42773,271.71829 171.94336,271.38236 172.38477,270.98782 C 172.82617,270.5933 173.13867,270.21048 173.32227,269.83938 L 174.00195,269.83938 L 174.00195,278.46438 z M 176.70898,276.21438 L 177.81641,276.12063 C 177.89844,276.6597 178.08887,277.06497 178.3877,277.33645 C 178.68652,277.60794 179.04687,277.74368 179.46875,277.74368 C 179.97656,277.74368 180.40625,277.55227 180.75781,277.16946 C 181.10937,276.78665 181.28515,276.27884 181.28516,275.64602 C 181.28515,275.04446 181.11621,274.56985 180.77832,274.22219 C 180.44043,273.87454 179.99804,273.70071 179.45117,273.70071 C 179.11133,273.70071 178.80468,273.77786 178.53125,273.93216 C 178.25781,274.08646 178.04297,274.28665 177.88672,274.53274 L 176.89648,274.40383 L 177.72852,269.99173 L 182,269.99173 L 182,270.99954 L 178.57227,270.99954 L 178.10938,273.30813 C 178.625,272.94876 179.16601,272.76907 179.73242,272.76907 C 180.48242,272.76907 181.11523,273.02884 181.63086,273.54837 C 182.14648,274.0679 182.40429,274.73587 182.4043,275.55227 C 182.40429,276.32962 182.17773,277.00149 181.72461,277.5679 C 181.17382,278.26321 180.42187,278.61087 179.46875,278.61087 C 178.6875,278.61087 178.0498,278.39212 177.55566,277.95462 C 177.06152,277.51712 176.7793,276.93704 176.70898,276.21438 L 176.70898,276.21438 z "
       transform="matrix(1.705583,0,0,1.705583,-38.69491,-189.41)"
       id="flowRoot4683" />
    <path
       d="M 261.25468,255.08915 L 261.25468,263.45733 L 259.20986,262.94066 L 262.82009,268.8316 L 266.41565,262.94989 L 264.37083,263.46655 L 264.37083,255.09838 L 261.25468,255.08915 z "
       style="fill:black;fill-opacity:1;fill-rule:evenodd;stroke:none;stroke-width:1px;stroke-linecap:butt;stroke-linejoin:miter;stroke-opacity:1"
       id="path4735" />
    <path
       d="M 174.00195,278.46438 L 172.94727,278.46438 L 172.94727,271.74368 C 172.69336,271.98587 172.36035,272.22806 171.94824,272.47024 C 171.53613,272.71243 171.16601,272.89407 170.83789,273.01516 L 170.83789,271.99563 C 171.42773,271.71829 171.94336,271.38236 172.38477,270.98782 C 172.82617,270.5933 173.13867,270.21048 173.32227,269.83938 L 174.00195,269.83938 L 174.00195,278.46438 z M 176.70898,276.21438 L 177.81641,276.12063 C 177.89844,276.6597 178.08887,277.06497 178.3877,277.33645 C 178.68652,277.60794 179.04687,277.74368 179.46875,277.74368 C 179.97656,277.74368 180.40625,277.55227 180.75781,277.16946 C 181.10937,276.78665 181.28515,276.27884 181.28516,275.64602 C 181.28515,275.04446 181.11621,274.56985 180.77832,274.22219 C 180.44043,273.87454 179.99804,273.70071 179.45117,273.70071 C 179.11133,273.70071 178.80468,273.77786 178.53125,273.93216 C 178.25781,274.08646 178.04297,274.28665 177.88672,274.53274 L 176.89648,274.40383 L 177.72852,269.99173 L 182,269.99173 L 182,270.99954 L 178.57227,270.99954 L 178.10938,273.30813 C 178.625,272.94876 179.16601,272.76907 179.73242,272.76907 C 180.48242,272.76907 181.11523,273.02884 181.63086,273.54837 C 182.14648,274.0679 182.40429,274.73587 182.4043,275.55227 C 182.40429,276.32962 182.17773,277.00149 181.72461,277.5679 C 181.17382,278.26321 180.42187,278.61087 179.46875,278.61087 C 178.6875,278.61087 178.0498,278.39212 177.55566,277.95462 C 177.06152,277.51712 176.7793,276.93704 176.70898,276.21438 L 176.70898,276.21438 z "
       transform="matrix(1.705583,0,0,1.705583,-8.715236,-189.41)"
       id="flowRoot5626" />
    <path
       d="M 291.23435,255.08915 L 291.23435,263.45733 L 289.18953,262.94066 L 292.79976,268.8316 L 296.39532,262.94989 L 294.3505,263.46655 L 294.3505,255.09838 L 291.23435,255.08915 z "
       style="fill:black;fill-opacity:1;fill-rule:evenodd;stroke:none;stroke-width:1px;stroke-linecap:butt;stroke-linejoin:miter;stroke-opacity:1"
       id="path5634" />
    <path
       d="M 174.00195,278.46438 L 172.94727,278.46438 L 172.94727,271.74368 C 172.69336,271.98587 172.36035,272.22806 171.94824,272.47024 C 171.53613,272.71243 171.16601,272.89407 170.83789,273.01516 L 170.83789,271.99563 C 171.42773,271.71829 171.94336,271.38236 172.38477,270.98782 C 172.82617,270.5933 173.13867,270.21048 173.32227,269.83938 L 174.00195,269.83938 L 174.00195,278.46438 z M 176.70898,276.21438 L 177.81641,276.12063 C 177.89844,276.6597 178.08887,277.06497 178.3877,277.33645 C 178.68652,277.60794 179.04687,277.74368 179.46875,277.74368 C 179.97656,277.74368 180.40625,277.55227 180.75781,277.16946 C 181.10937,276.78665 181.28515,276.27884 181.28516,275.64602 C 181.28515,275.04446 181.11621,274.56985 180.77832,274.22219 C 180.44043,273.87454 179.99804,273.70071 179.45117,273.70071 C 179.11133,273.70071 178.80468,273.77786 178.53125,273.93216 C 178.25781,274.08646 178.04297,274.28665 177.88672,274.53274 L 176.89648,274.40383 L 177.72852,269.99173 L 182,269.99173 L 182,270.99954 L 178.57227,270.99954 L 178.10938,273.30813 C 178.625,272.94876 179.16601,272.76907 179.73242,272.76907 C 180.48242,272.76907 181.11523,273.02884 181.63086,273.54837 C 182.14648,274.0679 182.40429,274.73587 182.4043,275.55227 C 182.40429,276.32962 182.17773,277.00149 181.72461,277.5679 C 181.17382,278.26321 180.42187,278.61087 179.46875,278.61087 C 178.6875,278.61087 178.0498,278.39212 177.55566,277.95462 C 177.06152,277.51712 176.7793,276.93704 176.70898,276.21438 L 176.70898,276.21438 z "
       transform="matrix(1.705583,0,0,1.705583,21.26444,-189.41)"
       id="flowRoot5636" />
    <path
       d="M 321.21403,255.08915 L 321.21403,263.45733 L 319.16921,262.94066 L 322.77944,268.8316 L 326.375,262.94989 L 324.33018,263.46655 L 324.33018,255.09838 L 321.21403,255.08915 z "
       style="fill:black;fill-opacity:1;fill-rule:evenodd;stroke:none;stroke-width:1px;stroke-linecap:butt;stroke-linejoin:miter;stroke-opacity:1"
       id="path5644" />
    <path
       d="M 174.00195,278.46438 L 172.94727,278.46438 L 172.94727,271.74368 C 172.69336,271.98587 172.36035,272.22806 171.94824,272.47024 C 171.53613,272.71243 171.16601,272.89407 170.83789,273.01516 L 170.83789,271.99563 C 171.42773,271.71829 171.94336,271.38236 172.38477,270.98782 C 172.82617,270.5933 173.13867,270.21048 173.32227,269.83938 L 174.00195,269.83938 L 174.00195,278.46438 z M 176.70898,276.21438 L 177.81641,276.12063 C 177.89844,276.6597 178.08887,277.06497 178.3877,277.33645 C 178.68652,277.60794 179.04687,277.74368 179.46875,277.74368 C 179.97656,277.74368 180.40625,277.55227 180.75781,277.16946 C 181.10937,276.78665 181.28515,276.27884 181.28516,275.64602 C 181.28515,275.04446 181.11621,274.56985 180.77832,274.22219 C 180.44043,273.87454 179.99804,273.70071 179.45117,273.70071 C 179.11133,273.70071 178.80468,273.77786 178.53125,273.93216 C 178.25781,274.08646 178.04297,274.28665 177.88672,274.53274 L 176.89648,274.40383 L 177.72852,269.99173 L 182,269.99173 L 182,270.99954 L 178.57227,270.99954 L 178.10938,273.30813 C 178.625,272.94876 179.16601,272.76907 179.73242,272.76907 C 180.48242,272.76907 181.11523,273.02884 181.63086,273.54837 C 182.14648,274.0679 182.40429,274.73587 182.4043,275.55227 C 182.40429,276.32962 182.17773,277.00149 181.72461,277.5679 C 181.17382,278.26321 180.42187,278.61087 179.46875,278.61087 C 178.6875,278.61087 178.0498,278.39212 177.55566,277.95462 C 177.06152,277.51712 176.7793,276.93704 176.70898,276.21438 L 176.70898,276.21438 z "
       transform="matrix(1.705583,0,0,1.705583,58.27211,-193.8113)"
       id="flowRoot5646" />
    <path
       d="M 339.98965,239.1782 L 348.35783,239.1782 L 347.84115,241.22302 L 353.73209,237.61279 L 347.85039,234.01723 L 348.36704,236.06205 L 339.99887,236.06205 L 339.98965,239.1782 z "
       style="fill:black;fill-opacity:1;fill-rule:evenodd;stroke:none;stroke-width:1px;stroke-linecap:butt;stroke-linejoin:miter;stroke-opacity:1"
       id="path5654" />
    <path
       d="M 174.00195,278.46438 L 172.94727,278.46438 L 172.94727,271.74368 C 172.69336,271.98587 172.36035,272.22806 171.94824,272.47024 C 171.53613,272.71243 171.16601,272.89407 170.83789,273.01516 L 170.83789,271.99563 C 171.42773,271.71829 171.94336,271.38236 172.38477,270.98782 C 172.82617,270.5933 173.13867,270.21048 173.32227,269.83938 L 174.00195,269.83938 L 174.00195,278.46438 z M 176.70898,276.21438 L 177.81641,276.12063 C 177.89844,276.6597 178.08887,277.06497 178.3877,277.33645 C 178.68652,277.60794 179.04687,277.74368 179.46875,277.74368 C 179.97656,277.74368 180.40625,277.55227 180.75781,277.16946 C 181.10937,276.78665 181.28515,276.27884 181.28516,275.64602 C 181.28515,275.04446 181.11621,274.56985 180.77832,274.22219 C 180.44043,273.87454 179.99804,273.70071 179.45117,273.70071 C 179.11133,273.70071 178.80468,273.77786 178.53125,273.93216 C 178.25781,274.08646 178.04297,274.28665 177.88672,274.53274 L 176.89648,274.40383 L 177.72852,269.99173 L 182,269.99173 L 182,270.99954 L 178.57227,270.99954 L 178.10938,273.30813 C 178.625,272.94876 179.16601,272.76907 179.73242,272.76907 C 180.48242,272.76907 181.11523,273.02884 181.63086,273.54837 C 182.14648,274.0679 182.40429,274.73587 182.4043,275.55227 C 182.40429,276.32962 182.17773,277.00149 181.72461,277.5679 C 181.17382,278.26321 180.42187,278.61087 179.46875,278.61087 C 178.6875,278.61087 178.0498,278.39212 177.55566,277.95462 C 177.06152,277.51712 176.7793,276.93704 176.70898,276.21438 L 176.70898,276.21438 z "
       transform="matrix(1.705583,0,0,1.705583,64.50686,-229.6205)"
       id="flowRoot5656" />
    <path
       d="M 338.48346,256.29256 L 344.40066,262.20976 L 342.58941,263.29032 L 349.30775,264.90303 L 347.6912,258.20159 L 346.61063,260.01283 L 340.69344,254.09564 L 338.48346,256.29256 z "
       style="fill:black;fill-opacity:1;fill-rule:evenodd;stroke:none;stroke-width:1px;stroke-linecap:butt;stroke-linejoin:miter;stroke-opacity:1"
       id="path5664" />
    <path
       d="M 339.98965,209.59714 L 348.35783,209.59714 L 347.84115,211.64196 L 353.73209,208.03173 L 347.85039,204.43617 L 348.36704,206.48099 L 339.99887,206.48099 L 339.98965,209.59714 z "
       style="fill:black;fill-opacity:1;fill-rule:evenodd;stroke:none;stroke-width:1px;stroke-linecap:butt;stroke-linejoin:miter;stroke-opacity:1"
       id="path5675" />
    <path
       d="M 174.00195,278.46438 L 172.94727,278.46438 L 172.94727,271.74368 C 172.69336,271.98587 172.36035,272.22806 171.94824,272.47024 C 171.53613,272.71243 171.16601,272.89407 170.83789,273.01516 L 170.83789,271.99563 C 171.42773,271.71829 171.94336,271.38236 172.38477,270.98782 C 172.82617,270.5933 173.13867,270.21048 173.32227,269.83938 L 174.00195,269.83938 L 174.00195,278.46438 z M 176.70898,276.21438 L 177.81641,276.12063 C 177.89844,276.6597 178.08887,277.06497 178.3877,277.33645 C 178.68652,277.60794 179.04687,277.74368 179.46875,277.74368 C 179.97656,277.74368 180.40625,277.55227 180.75781,277.16946 C 181.10937,276.78665 181.28515,276.27884 181.28516,275.64602 C 181.28515,275.04446 181.11621,274.56985 180.77832,274.22219 C 180.44043,273.87454 179.99804,273.70071 179.45117,273.70071 C 179.11133,273.70071 178.80468,273.77786 178.53125,273.93216 C 178.25781,274.08646 178.04297,274.28665 177.88672,274.53274 L 176.89648,274.40383 L 177.72852,269.99173 L 182,269.99173 L 182,270.99954 L 178.57227,270.99954 L 178.10938,273.30813 C 178.625,272.94876 179.16601,272.76907 179.73242,272.76907 C 180.48242,272.76907 181.11523,273.02884 181.63086,273.54837 C 182.14648,274.0679 182.40429,274.73587 182.4043,275.55227 C 182.40429,276.32962 182.17773,277.00149 181.72461,277.5679 C 181.17382,278.26321 180.42187,278.61087 179.46875,278.61087 C 178.6875,278.61087 178.0498,278.39212 177.55566,277.95462 C 177.06152,277.51712 176.7793,276.93704 176.70898,276.21438 L 176.70898,276.21438 z "
       transform="matrix(1.705583,0,0,1.705583,64.50686,-259.2015)"
       id="flowRoot5677" />
    <path
       d="M 339.98965,180.01609 L 348.35783,180.01609 L 347.84115,182.06091 L 353.73209,178.45068 L 347.85039,174.85512 L 348.36704,176.89994 L 339.99887,176.89994 L 339.98965,180.01609 z "
       style="fill:black;fill-opacity:1;fill-rule:evenodd;stroke:none;stroke-width:1px;stroke-linecap:butt;stroke-linejoin:miter;stroke-opacity:1"
       id="path5687" />
    <path
       d="M 174.00195,278.46438 L 172.94727,278.46438 L 172.94727,271.74368 C 172.69336,271.98587 172.36035,272.22806 171.94824,272.47024 C 171.53613,272.71243 171.16601,272.89407 170.83789,273.01516 L 170.83789,271.99563 C 171.42773,271.71829 171.94336,271.38236 172.38477,270.98782 C 172.82617,270.5933 173.13867,270.21048 173.32227,269.83938 L 174.00195,269.83938 L 174.00195,278.46438 z M 176.70898,276.21438 L 177.81641,276.12063 C 177.89844,276.6597 178.08887,277.06497 178.3877,277.33645 C 178.68652,277.60794 179.04687,277.74368 179.46875,277.74368 C 179.97656,277.74368 180.40625,277.55227 180.75781,277.16946 C 181.10937,276.78665 181.28515,276.27884 181.28516,275.64602 C 181.28515,275.04446 181.11621,274.56985 180.77832,274.22219 C 180.44043,273.87454 179.99804,273.70071 179.45117,273.70071 C 179.11133,273.70071 178.80468,273.77786 178.53125,273.93216 C 178.25781,274.08646 178.04297,274.28665 177.88672,274.53274 L 176.89648,274.40383 L 177.72852,269.99173 L 182,269.99173 L 182,270.99954 L 178.57227,270.99954 L 178.10938,273.30813 C 178.625,272.94876 179.16601,272.76907 179.73242,272.76907 C 180.48242,272.76907 181.11523,273.02884 181.63086,273.54837 C 182.14648,274.0679 182.40429,274.73587 182.4043,275.55227 C 182.40429,276.32962 182.17773,277.00149 181.72461,277.5679 C 181.17382,278.26321 180.42187,278.61087 179.46875,278.61087 C 178.6875,278.61087 178.0498,278.39212 177.55566,277.95462 C 177.06152,277.51712 176.7793,276.93704 176.70898,276.21438 L 176.70898,276.21438 z "
       transform="matrix(1.705583,0,0,1.705583,64.50686,-288.7826)"
       id="flowRoot5689" />
    <path
       d="M 174.00195,278.46438 L 172.94727,278.46438 L 172.94727,271.74368 C 172.69336,271.98587 172.36035,272.22806 171.94824,272.47024 C 171.53613,272.71243 171.16601,272.89407 170.83789,273.01516 L 170.83789,271.99563 C 171.42773,271.71829 171.94336,271.38236 172.38477,270.98782 C 172.82617,270.5933 173.13867,270.21048 173.32227,269.83938 L 174.00195,269.83938 L 174.00195,278.46438 z M 176.70898,276.21438 L 177.81641,276.12063 C 177.89844,276.6597 178.08887,277.06497 178.3877,277.33645 C 178.68652,277.60794 179.04687,277.74368 179.46875,277.74368 C 179.97656,277.74368 180.40625,277.55227 180.75781,277.16946 C 181.10937,276.78665 181.28515,276.27884 181.28516,275.64602 C 181.28515,275.04446 181.11621,274.56985 180.77832,274.22219 C 180.44043,273.87454 179.99804,273.70071 179.45117,273.70071 C 179.11133,273.70071 178.80468,273.77786 178.53125,273.93216 C 178.25781,274.08646 178.04297,274.28665 177.88672,274.53274 L 176.89648,274.40383 L 177.72852,269.99173 L 182,269.99173 L 182,270.99954 L 178.57227,270.99954 L 178.10938,273.30813 C 178.625,272.94876 179.16601,272.76907 179.73242,272.76907 C 180.48242,272.76907 181.11523,273.02884 181.63086,273.54837 C 182.14648,274.0679 182.40429,274.73587 182.4043,275.55227 C 182.40429,276.32962 182.17773,277.00149 181.72461,277.5679 C 181.17382,278.26321 180.42187,278.61087 179.46875,278.61087 C 178.6875,278.61087 178.0498,278.39212 177.55566,277.95462 C 177.06152,277.51712 176.7793,276.93704 176.70898,276.21438 L 176.70898,276.21438 z "
       transform="matrix(1.705583,0,0,1.705583,-76.64283,-193.8113)"
       id="flowRoot5697" />
    <path
       d="M 244.62834,254.09564 L 238.71114,260.01284 L 237.63058,258.20159 L 236.01787,264.91993 L 242.71931,263.30338 L 240.90807,262.22281 L 246.82526,256.30562 L 244.62834,254.09564 z "
       style="fill:black;fill-opacity:1;fill-rule:evenodd;stroke:none;stroke-width:1px;stroke-linecap:butt;stroke-linejoin:miter;stroke-opacity:1"
       id="path5705" />
  </g>
</svg>
